<?xml version="1.0" standalone="no"?>
<!DOCTYPE svg PUBLIC "-//W3C//DTD SVG 20010904//EN"
 "http://www.w3.org/TR/2001/REC-SVG-20010904/DTD/svg10.dtd">
<svg version="1.0" xmlns="http://www.w3.org/2000/svg"
 width="512.000000pt" height="512.000000pt" viewBox="0 0 512.000000 512.000000"
 preserveAspectRatio="xMidYMid meet">

<g transform="translate(0.000000,512.000000) scale(0.100000,-0.100000)"
fill="#000000" stroke="none">
<path d="M632 5113 c-36 -14 -42 -57 -42 -300 l0 -239 -72 -17 c-236 -55 -411
-220 -494 -467 -18 -53 -19 -134 -22 -2048 l-2 -1993 24 -24 25 -25 2511 0
2511 0 25 25 24 24 -2 1993 c-3 1914 -4 1995 -22 2048 -83 247 -258 412 -494
467 l-72 17 0 239 c0 189 -3 244 -15 266 -23 46 -66 54 -109 20 l-26 -20 0
-252 0 -252 -75 -17 c-247 -56 -446 -257 -506 -513 -8 -32 -14 -197 -18 -453
l-6 -402 -567 340 -567 341 -3 374 c-3 370 -3 375 -25 396 -29 29 -77 29 -106
0 -22 -21 -22 -26 -25 -396 l-3 -374 -567 -341 -567 -340 -6 402 c-4 256 -10
421 -18 453 -60 256 -259 457 -506 513 l-75 17 0 252 0 252 -26 20 c-26 20
-55 25 -82 14z m164 -707 c80 -21 174 -75 234 -136 62 -61 126 -173 136 -238
l7 -42 -59 0 c-103 0 -153 -25 -154 -77 -1 -60 39 -83 145 -83 l75 0 0 -85 0
-85 -512 2 -513 3 -3 82 -3 82 280 3 c258 3 281 4 300 22 23 21 28 65 11 96
-18 33 -76 40 -332 40 l-247 0 5 33 c3 17 23 69 45 113 61 128 169 220 309
265 68 21 206 24 276 5z m3792 -2 c144 -42 258 -137 321 -268 22 -44 42 -96
45 -113 l6 -33 -507 0 -506 0 7 42 c10 65 74 177 136 238 58 59 153 115 229
136 67 18 203 17 269 -2z m380 -656 l-3 -83 -512 -3 -513 -2 0 85 0 85 515 0
516 0 -3 -82z m-1798 -372 l605 -363 3 -1432 2 -1431 -222 2 -223 3 -5 298
c-5 281 -6 299 -24 313 -28 20 -69 17 -97 -5 l-24 -19 -3 -296 -3 -296 -189 0
-190 0 0 518 c0 325 4 531 10 554 22 77 102 138 181 138 60 0 125 -34 157 -82
23 -35 27 -54 32 -144 5 -81 10 -107 24 -123 25 -28 79 -28 107 0 19 19 20 30
17 132 -3 96 -7 120 -30 169 -31 68 -95 133 -164 168 -42 21 -62 25 -144 25
-84 0 -101 -3 -148 -28 -70 -37 -128 -97 -161 -166 l-26 -56 -3 -552 -3 -553
-89 0 -89 0 -3 548 -3 547 -29 62 c-121 263 -487 271 -613 15 l-28 -57 -5
-555 -5 -555 -223 -3 -222 -2 2 1431 3 1432 605 363 c332 200 607 364 610 364
3 0 278 -164 610 -364z m-1990 -441 l0 -575 -45 0 -45 0 0 355 c0 324 -2 359
-19 405 -25 66 -71 122 -129 158 -198 122 -444 7 -482 -225 -6 -32 -10 -201
-10 -375 l0 -318 -150 0 -150 0 0 575 0 575 515 0 515 0 0 -575z m3790 0 l0
-575 -150 0 -150 0 0 318 c0 174 -4 343 -10 375 -38 232 -284 347 -482 225
-58 -36 -104 -92 -129 -158 -17 -46 -19 -81 -19 -405 l0 -355 -45 0 -45 0 0
575 0 575 515 0 515 0 0 -575z m-4158 235 c48 -14 97 -55 114 -97 11 -25 14
-108 14 -373 l0 -340 -165 0 -165 0 0 346 c0 298 2 351 16 380 18 37 59 71
102 84 37 11 42 11 84 0z m3629 -25 c68 -44 69 -52 69 -439 l0 -346 -165 0
-165 0 0 340 c0 366 2 381 53 428 59 55 140 61 208 17z m-3261 -1970 l0 -1025
-515 0 -515 0 0 1025 0 1025 515 0 515 0 0 -1025z m3790 0 l0 -1025 -515 0
-515 0 0 1025 0 1025 515 0 515 0 0 -1025z m-2761 165 c48 -24 87 -70 101
-118 6 -23 10 -229 10 -554 l0 -518 -190 0 -190 0 2 543 3 543 27 41 c50 76
157 104 237 63z"/>
<path d="M2511 3343 c-15 -16 -71 -105 -125 -200 l-99 -172 -229 -3 c-228 -3
-230 -3 -249 -27 -10 -13 -19 -34 -19 -48 0 -13 49 -110 109 -214 l110 -189
-110 -190 c-60 -104 -109 -200 -109 -213 0 -14 9 -35 19 -48 19 -24 21 -24
248 -27 l230 -3 103 -180 c167 -290 173 -290 340 0 l103 180 230 3 c227 3 229
3 248 27 10 13 19 34 19 48 0 13 -49 109 -109 213 l-110 190 110 189 c60 104
109 201 109 214 0 14 -9 35 -19 48 -19 24 -21 24 -249 27 l-229 3 -99 172
c-103 181 -139 227 -174 227 -12 0 -34 -12 -49 -27z m102 -293 l46 -80 -99 0
-99 0 46 80 c26 44 50 80 53 80 3 0 27 -36 53 -80z m-425 -247 c-12 -28 -81
-144 -88 -148 -4 -3 -20 16 -35 42 -15 27 -36 63 -47 81 l-20 32 97 0 c53 0
95 -3 93 -7z m653 -148 c48 -82 88 -156 88 -163 1 -7 -41 -85 -91 -172 l-93
-160 -185 0 -185 0 -93 160 c-50 87 -92 164 -92 170 0 9 118 220 167 298 14
22 16 22 205 20 l192 -3 87 -150z m261 123 c-11 -18 -32 -54 -47 -81 -15 -26
-31 -45 -35 -42 -7 4 -76 120 -88 148 -2 4 40 7 93 7 l97 0 -20 -32z m-953
-532 c23 -40 41 -76 41 -80 0 -3 -43 -6 -95 -6 -52 0 -95 2 -95 5 0 16 93 164
100 160 5 -3 27 -39 49 -79z m925 4 c25 -43 46 -82 46 -85 0 -3 -43 -5 -95 -5
-52 0 -95 3 -95 7 0 14 87 163 95 163 2 0 24 -36 49 -80z m-461 -320 c-26 -44
-50 -80 -53 -80 -3 0 -27 36 -53 80 l-46 80 99 0 99 0 -46 -80z"/>
<path d="M675 1748 c-87 -32 -164 -104 -197 -188 -22 -53 -23 -70 -26 -435 -2
-209 -1 -395 3 -413 3 -18 15 -42 26 -53 18 -18 35 -19 292 -19 273 0 274 0
295 23 22 23 22 26 22 430 0 390 -1 408 -21 464 -29 78 -104 153 -182 182 -63
23 -161 27 -212 9z m175 -160 c33 -17 51 -35 68 -68 22 -43 22 -51 22 -387 l0
-343 -165 0 -165 0 0 350 c0 375 0 379 52 427 51 48 120 55 188 21z"/>
<path d="M4225 1736 c-78 -33 -144 -101 -173 -179 -21 -56 -22 -72 -22 -466
l0 -408 23 -21 c23 -21 30 -22 295 -22 256 0 273 1 291 19 11 11 23 35 26 53
4 18 5 204 3 413 -3 367 -4 382 -26 436 -27 67 -90 134 -158 169 -73 37 -179
39 -259 6z m213 -153 c15 -11 37 -35 50 -53 22 -33 22 -36 22 -386 l0 -354
-165 0 -165 0 0 343 c0 336 0 344 23 387 41 84 164 116 235 63z"/>
</g>
</svg>
