<?xml version="1.0" standalone="no"?>
<!DOCTYPE svg PUBLIC "-//W3C//DTD SVG 20010904//EN"
 "http://www.w3.org/TR/2001/REC-SVG-20010904/DTD/svg10.dtd">
<svg version="1.0" xmlns="http://www.w3.org/2000/svg"
 width="512.000000pt" height="512.000000pt" viewBox="0 0 512.000000 512.000000"
 preserveAspectRatio="xMidYMid meet">

<g transform="translate(0.000000,512.000000) scale(0.100000,-0.100000)"
fill="#000000" stroke="none">
<path d="M760 4997 c-124 -35 -200 -135 -200 -262 0 -71 15 -110 66 -177 l44
-58 -230 0 c-344 0 -330 13 -330 -311 0 -280 7 -296 140 -301 l65 -3 0 -1325
0 -1325 -65 -3 c-133 -5 -140 -20 -140 -302 0 -323 -14 -310 330 -310 l230 0
-44 -57 c-52 -70 -66 -107 -66 -184 0 -124 91 -233 215 -259 260 -54 423 257
240 458 l-36 41 251 3 252 3 29 33 30 33 -3 246 -3 245 -28 24 c-24 20 -39 24
-98 24 l-69 0 0 105 0 105 1220 0 1220 0 0 -105 0 -105 -69 0 c-59 0 -74 -4
-98 -24 l-28 -24 -3 -245 -3 -246 30 -33 29 -33 252 -3 251 -3 -36 -41 c-53
-58 -78 -121 -78 -193 0 -221 236 -346 420 -222 66 44 113 135 113 216 0 77
-14 114 -66 184 l-44 57 230 0 c344 0 330 -13 330 311 0 280 -7 296 -140 301
l-65 3 0 1325 0 1325 65 3 c133 5 140 21 140 301 0 324 14 311 -330 311 l-231
0 35 43 c85 104 100 210 43 319 -39 75 -99 121 -182 138 -260 54 -423 -257
-240 -458 l36 -41 -251 -3 -252 -3 -29 -33 -30 -33 3 -246 3 -245 28 -24 c24
-20 39 -24 98 -24 l69 0 0 -105 0 -105 -1220 0 -1220 0 0 105 0 105 69 0 c59
0 74 4 98 24 l28 24 3 245 3 246 -30 33 -29 33 -252 3 -251 3 36 41 c103 114
105 267 6 380 -60 69 -170 100 -261 75z m112 -214 c30 -27 23 -74 -16 -112
l-33 -32 -32 36 c-34 39 -39 69 -15 103 18 27 69 30 96 5z m3472 -5 c24 -34
19 -64 -15 -103 l-32 -36 -33 32 c-38 37 -45 80 -17 111 23 26 78 24 97 -4z
m-3004 -588 l0 -100 -510 0 -510 0 0 100 0 100 510 0 510 0 0 -100z m3460 0
l0 -100 -510 0 -510 0 0 100 0 100 510 0 510 0 0 -100z m-3670 -554 l0 -254
-121 -3 -121 -4 -29 -33 c-48 -54 -35 -129 28 -161 12 -6 71 -11 132 -11 l111
0 0 -355 0 -355 -104 0 c-58 0 -116 -4 -129 -9 -71 -27 -89 -106 -38 -163 l29
-33 121 -4 121 -3 0 -354 0 -354 -110 0 c-152 0 -190 -21 -190 -105 0 -27 8
-44 29 -66 29 -29 30 -29 150 -29 l121 0 0 -55 0 -55 -302 2 -303 3 -3 253 -2
252 102 1 c130 0 167 12 191 61 16 32 17 43 7 74 -20 60 -56 74 -187 74 l-113
0 0 355 0 355 113 0 c131 0 167 14 187 74 10 31 9 42 -7 74 -24 49 -61 61
-190 61 l-103 1 0 355 0 355 120 0 c118 0 120 0 152 29 27 24 33 36 33 71 0
35 -6 47 -33 71 -32 29 -34 29 -152 29 l-120 0 0 48 c0 27 3 52 7 55 3 4 141
7 305 7 l298 0 0 -254z m3468 -3 l2 -253 -102 -1 c-130 0 -167 -12 -191 -61
-16 -32 -17 -43 -7 -74 20 -60 56 -74 188 -74 l112 0 0 -355 0 -355 -112 0
c-132 0 -168 -14 -188 -74 -10 -31 -9 -42 7 -74 24 -49 61 -61 191 -61 l102
-1 0 -355 0 -355 -120 0 c-118 0 -120 0 -152 -29 -27 -24 -33 -36 -33 -71 0
-35 6 -47 33 -71 32 -29 34 -29 153 -29 l120 0 -3 -52 -3 -53 -302 -3 -303 -2
0 254 0 254 121 3 121 4 29 33 c48 54 35 129 -28 161 -12 6 -71 11 -132 11
l-111 0 0 355 0 355 104 0 c56 0 117 5 134 11 66 23 83 105 33 161 l-29 33
-121 4 -121 3 0 354 0 354 110 0 c152 0 190 21 190 105 0 27 -8 44 -29 66 -29
29 -30 29 -150 29 l-121 0 0 55 0 55 303 -2 302 -3 3 -252z m-818 -1073 l0
-920 -1220 0 -1220 0 0 920 0 920 1220 0 1220 0 0 -920z m-2440 -1630 l0 -100
-510 0 -510 0 0 100 0 100 510 0 510 0 0 -100z m3460 0 l0 -100 -510 0 -510 0
0 100 0 100 510 0 510 0 0 -100z m-3910 -544 c0 -40 -26 -66 -66 -66 -23 0
-38 7 -48 22 -24 34 -19 64 15 103 l32 36 33 -32 c24 -23 34 -42 34 -63z
m3470 1 c0 -37 -27 -67 -62 -67 -72 0 -91 70 -35 128 l32 33 33 -35 c17 -20
32 -46 32 -59z"/>
<path d="M2402 3255 c-12 -9 -40 -47 -63 -85 l-41 -70 -235 0 c-193 0 -239 -3
-264 -16 -38 -19 -61 -71 -50 -110 5 -16 59 -114 120 -219 61 -104 111 -192
111 -195 0 -3 -50 -91 -111 -195 -61 -105 -115 -203 -120 -219 -11 -39 12 -91
50 -110 25 -13 71 -16 264 -16 l235 0 41 -70 c48 -80 72 -100 121 -100 48 0
64 14 114 96 l43 69 244 5 c260 5 276 8 298 57 22 48 11 77 -104 273 -63 108
-115 203 -115 210 0 7 52 102 115 210 115 196 126 225 104 273 -22 49 -38 52
-298 57 l-244 5 -43 69 c-23 39 -50 76 -60 83 -24 18 -85 16 -112 -2z m-232
-371 c0 -10 -64 -114 -70 -114 -3 0 -20 27 -38 60 l-33 60 70 0 c39 0 71 -3
71 -6z m428 -153 c50 -88 92 -165 92 -171 0 -6 -43 -86 -96 -176 l-96 -165
-42 3 -41 3 -98 167 -98 168 96 165 97 165 46 0 47 0 93 -159z m258 103 c-18
-31 -37 -55 -42 -55 -5 1 -24 26 -41 56 l-32 55 74 0 74 0 -33 -56z m-718
-538 c17 -30 32 -59 32 -65 0 -7 -26 -11 -70 -11 -38 0 -70 3 -70 6 0 10 64
124 70 124 3 0 20 -24 38 -54z m717 -7 c19 -33 35 -62 35 -65 0 -2 -34 -4 -75
-4 -41 0 -75 2 -75 4 0 8 71 126 75 126 2 0 20 -27 40 -61z"/>
<path d="M1950 4800 l0 -100 -105 0 -105 0 0 -100 0 -100 105 0 105 0 0 -105
0 -105 100 0 100 0 0 105 0 105 105 0 105 0 0 100 0 100 -105 0 -105 0 0 100
0 100 -100 0 -100 0 0 -100z m200 -200 l0 -100 -100 0 -100 0 0 100 0 100 100
0 100 0 0 -100z"/>
<path d="M2797 4490 c-85 -22 -163 -84 -205 -164 -21 -42 -26 -65 -26 -131 -1
-130 52 -218 166 -275 110 -54 243 -38 333 42 202 178 92 509 -176 532 -30 3
-71 1 -92 -4z m132 -221 c50 -47 50 -111 -1 -154 -71 -60 -179 4 -161 98 13
66 113 101 162 56z"/>
<path d="M2760 1130 l0 -100 -100 0 -100 0 0 -100 0 -100 100 0 100 0 0 100 0
100 105 0 105 0 0 -100 0 -99 -102 -3 -103 -3 0 -100 0 -100 103 -3 102 -3 0
106 0 105 100 0 100 0 0 100 0 100 -100 0 -100 0 0 100 0 100 -105 0 -105 0 0
-100z"/>
<path d="M1942 1113 c-61 -21 -145 -102 -171 -164 -26 -58 -30 -151 -11 -214
39 -132 181 -226 318 -212 205 21 333 237 252 425 -28 66 -111 144 -176 166
-59 20 -155 19 -212 -1z m157 -197 c90 -47 53 -186 -49 -186 -101 0 -138 129
-52 183 33 20 65 21 101 3z"/>
</g>
</svg>
