<?xml version="1.0" standalone="no"?>
<!DOCTYPE svg PUBLIC "-//W3C//DTD SVG 20010904//EN"
 "http://www.w3.org/TR/2001/REC-SVG-20010904/DTD/svg10.dtd">
<svg version="1.0" xmlns="http://www.w3.org/2000/svg"
 width="512.000000pt" height="512.000000pt" viewBox="0 0 512.000000 512.000000"
 preserveAspectRatio="xMidYMid meet">

<g transform="translate(0.000000,512.000000) scale(0.100000,-0.100000)"
fill="#000000" stroke="none">
<path d="M1638 5110 c-23 -14 -110 -168 -146 -261 -73 -184 -63 -292 37 -382
146 -132 381 -23 381 177 0 84 -24 166 -86 294 -78 159 -128 205 -186 172z
m63 -262 c35 -68 59 -148 59 -195 0 -80 -73 -120 -133 -73 -32 26 -40 58 -27
116 11 46 68 194 76 194 2 0 13 -19 25 -42z"/>
<path d="M3384 5085 c-41 -44 -137 -239 -158 -321 -34 -134 -13 -231 65 -297
138 -119 350 -39 384 144 15 81 -40 251 -131 411 -64 110 -101 125 -160 63z
m131 -370 c18 -71 12 -108 -22 -135 -60 -47 -133 -7 -133 73 0 48 24 127 60
197 l23 45 28 -60 c16 -33 35 -87 44 -120z"/>
<path d="M1530 4218 c-33 -17 -51 -35 -67 -68 -23 -44 -23 -46 -23 -536 l0
-492 -96 -4 c-91 -3 -97 -5 -120 -31 -29 -34 -30 -56 -3 -91 18 -23 28 -26 79
-26 l58 0 4 -162 c3 -138 7 -170 24 -209 27 -57 77 -115 130 -149 l42 -26 -79
-131 c-126 -208 -120 -143 -75 -907 31 -543 35 -648 24 -669 -7 -13 -89 -146
-183 -296 l-170 -271 -73 0 c-64 0 -76 -3 -97 -25 -32 -31 -32 -69 0 -100 l24
-25 749 0 c739 0 748 0 770 20 30 28 30 82 0 110 -18 16 -35 20 -94 20 l-73 0
-180 289 c-170 271 -181 292 -181 337 0 27 16 320 36 651 42 715 47 655 -77
863 -72 120 -79 136 -64 145 115 68 175 161 175 270 0 58 -22 85 -69 85 -49 0
-68 -21 -81 -89 -18 -95 -72 -141 -168 -141 -63 0 -109 30 -140 90 -21 41 -22
56 -20 180 l3 135 303 5 c286 5 304 6 318 24 21 29 18 80 -7 102 -17 15 -40
20 -120 22 l-98 4 -3 511 c-3 494 -4 513 -23 539 -37 51 -89 68 -206 68 -89 0
-112 -3 -149 -22z m230 -613 l0 -485 -85 0 -85 0 0 485 0 485 85 0 85 0 0
-485z m-1 -1405 c34 -58 66 -122 72 -142 7 -28 0 -196 -26 -632 -19 -328 -35
-605 -35 -616 0 -19 -6 -20 -89 -20 l-89 0 -5 53 c-4 28 -21 305 -38 615 -24
418 -30 574 -22 602 5 21 41 91 79 154 53 90 71 113 80 103 6 -6 39 -59 73
-117z m190 -1802 l151 -243 -416 -3 c-230 -1 -419 0 -422 2 -4 4 225 378 280
459 19 27 20 27 138 27 l118 0 151 -242z"/>
<path d="M3295 4220 c-22 -11 -49 -33 -60 -48 -19 -26 -20 -45 -23 -539 l-3
-511 -98 -4 c-113 -4 -141 -18 -141 -73 0 -53 20 -69 92 -75 l63 -5 5 -170 c5
-149 8 -175 27 -211 32 -60 69 -101 119 -130 25 -15 44 -30 42 -34 -2 -3 -38
-65 -80 -136 -121 -202 -116 -145 -74 -857 20 -331 36 -624 36 -651 0 -45 -11
-66 -181 -337 l-180 -289 -73 0 c-59 0 -76 -4 -94 -20 -30 -28 -30 -82 0 -110
22 -20 31 -20 770 -20 l749 0 24 25 c32 31 32 69 0 100 -21 22 -33 25 -97 25
l-73 0 -170 271 c-94 150 -176 283 -183 296 -11 21 -7 126 24 669 45 764 51
699 -75 908 l-79 131 42 26 c53 34 103 91 130 148 17 39 21 71 24 209 l4 162
58 0 c51 0 61 3 79 26 27 35 26 57 -3 91 -23 26 -29 28 -120 31 l-96 4 0 323
c0 343 -3 364 -47 384 -34 16 -47 14 -77 -10 l-26 -20 0 -340 0 -339 -85 0
-85 0 0 485 0 485 85 0 c78 0 85 -2 85 -20 0 -27 39 -60 71 -60 103 0 96 154
-11 208 -62 31 -234 32 -295 2z m313 -1390 c2 -124 1 -139 -20 -180 -34 -67
-79 -93 -153 -88 -71 4 -114 30 -139 82 -12 27 -16 66 -16 180 l0 146 163 -2
162 -3 3 -135z m-63 -668 c37 -63 49 -96 53 -135 3 -47 -49 -1019 -64 -1174
l-6 -63 -89 0 c-83 0 -89 1 -89 20 0 11 -16 288 -35 616 -26 435 -33 604 -26
632 9 31 81 164 138 251 l15 24 28 -44 c15 -24 49 -81 75 -127z m168 -1765
c82 -131 147 -240 145 -243 -3 -2 -192 -3 -422 -2 l-416 3 151 243 152 243
120 -3 121 -3 149 -238z"/>
</g>
</svg>
