<?xml version="1.0" standalone="no"?>
<!DOCTYPE svg PUBLIC "-//W3C//DTD SVG 20010904//EN"
 "http://www.w3.org/TR/2001/REC-SVG-20010904/DTD/svg10.dtd">
<svg version="1.0" xmlns="http://www.w3.org/2000/svg"
 width="512.000000pt" height="512.000000pt" viewBox="0 0 512.000000 512.000000"
 preserveAspectRatio="xMidYMid meet">

<g transform="translate(0.000000,512.000000) scale(0.100000,-0.100000)"
fill="#000000" stroke="none">
<path d="M1356 4899 c-200 -47 -397 -305 -488 -639 -33 -120 -33 -365 0 -489
75 -286 237 -548 494 -800 l79 -77 -43 -31 c-56 -40 -177 -163 -229 -232 -133
-179 -219 -397 -265 -676 -14 -83 -18 -163 -18 -325 0 -214 8 -306 45 -514 23
-131 24 -277 4 -365 -32 -135 -118 -255 -238 -332 l-60 -39 721 0 720 0 49 39
c75 59 150 149 187 223 97 193 58 401 -126 670 -69 101 -151 198 -349 414
-231 251 -285 332 -310 468 -23 123 17 254 116 379 l46 58 24 -20 c34 -26 770
-710 1180 -1096 187 -176 467 -446 623 -600 267 -264 286 -284 323 -360 41
-85 79 -214 79 -274 0 -61 10 -66 66 -38 112 57 236 175 331 317 87 129 161
335 170 472 21 311 -161 674 -596 1193 -55 66 -109 136 -118 155 -27 53 -24
298 6 440 31 148 92 374 103 381 6 4 37 9 71 13 282 29 455 162 503 385 29
138 11 421 -35 555 -38 107 -102 195 -195 263 -126 93 -262 145 -556 213 -263
61 -285 68 -423 132 -101 48 -138 60 -176 60 -84 0 -146 -55 -176 -157 -45
-146 -45 -509 -1 -698 49 -212 119 -340 266 -487 83 -83 128 -119 215 -170
106 -63 110 -67 113 -103 2 -21 -4 -63 -13 -94 -20 -68 -97 -242 -147 -332
l-36 -63 -339 328 c-347 337 -888 857 -1232 1185 -210 199 -242 242 -283 373
-22 72 -29 198 -15 269 9 42 6 43 -67 26z"/>
</g>
</svg>
