<?xml version="1.0" standalone="no"?>
<!DOCTYPE svg PUBLIC "-//W3C//DTD SVG 20010904//EN"
 "http://www.w3.org/TR/2001/REC-SVG-20010904/DTD/svg10.dtd">
<svg version="1.0" xmlns="http://www.w3.org/2000/svg"
 width="512.000000pt" height="512.000000pt" viewBox="0 0 512.000000 512.000000"
 preserveAspectRatio="xMidYMid meet">

<g transform="translate(0.000000,512.000000) scale(0.100000,-0.100000)"
fill="#000000" stroke="none">
<path d="M2449 5102 c-102 -34 -175 -97 -227 -196 -25 -47 -27 -60 -27 -168
l0 -117 -147 -85 -148 -86 -61 45 c-78 58 -147 78 -248 74 -140 -7 -258 -87
-320 -219 -22 -47 -26 -69 -26 -150 0 -82 4 -103 26 -151 46 -98 119 -165 222
-204 l47 -18 0 -224 0 -224 25 -24 c17 -18 35 -25 62 -25 119 -1 228 -132 209
-251 -17 -105 -90 -178 -195 -195 -87 -14 -194 46 -232 130 -23 50 -24 124 -4
173 31 73 7 133 -53 133 -47 0 -70 -25 -93 -101 -43 -140 -6 -281 97 -379 49
-46 141 -100 172 -100 9 0 12 -43 12 -180 0 -137 -3 -180 -12 -180 -31 0 -123
-54 -172 -100 -251 -238 -59 -665 287 -638 75 6 173 47 213 89 15 16 33 29 38
29 6 0 76 -38 156 -84 l144 -84 1 -114 c0 -101 3 -119 27 -171 43 -92 134
-168 241 -201 15 -5 17 -23 17 -184 l0 -179 -57 -21 c-77 -28 -151 -95 -194
-174 -33 -61 -34 -67 -34 -173 0 -101 2 -114 27 -162 36 -68 78 -114 136 -151
188 -120 437 -52 534 146 31 63 33 73 33 172 0 101 -1 108 -34 168 -43 79
-117 146 -193 174 l-58 21 0 179 c0 161 2 179 18 184 106 33 197 109 240 201
24 52 27 70 27 171 l1 114 144 84 c80 46 150 84 156 84 5 0 23 -13 38 -29 40
-42 138 -83 213 -89 346 -27 538 400 287 638 -49 46 -141 100 -171 100 -10 0
-13 43 -13 180 0 137 3 180 13 180 30 0 122 54 171 100 132 125 153 325 49
478 -42 62 -124 124 -188 143 l-45 13 0 177 0 177 38 13 c98 31 185 109 230
207 23 49 27 70 27 152 0 81 -4 103 -26 150 -39 81 -99 144 -177 182 -62 31
-74 33 -167 33 -112 0 -153 -14 -237 -78 l-47 -36 -148 85 -148 85 0 112 c0
107 -2 116 -33 179 -40 81 -112 149 -192 179 -77 30 -180 34 -251 11z m212
-160 c34 -17 65 -44 84 -71 28 -39 30 -50 30 -126 0 -76 -2 -87 -30 -126 -40
-56 -120 -99 -185 -99 -65 0 -145 43 -185 99 -28 39 -30 50 -30 126 0 76 2 87
30 126 40 56 120 99 185 99 33 0 64 -9 101 -28z m-329 -492 c60 -46 157 -80
228 -80 71 0 168 34 228 80 29 22 55 40 57 40 3 0 73 -39 156 -86 114 -65 149
-90 144 -102 -16 -42 -16 -131 -1 -192 34 -134 131 -232 269 -274 15 -5 17
-23 17 -186 0 -137 -3 -180 -12 -180 -32 0 -138 -62 -180 -106 -68 -71 -102
-150 -102 -244 -1 -41 2 -88 6 -105 8 -30 7 -30 -147 -118 l-155 -89 -46 41
c-64 56 -136 81 -234 81 -98 0 -170 -25 -234 -81 l-46 -40 -155 88 c-154 88
-155 88 -147 118 4 17 7 64 6 105 0 94 -34 173 -102 244 -42 44 -148 106 -179
106 -10 0 -13 43 -13 180 0 163 2 181 18 186 137 42 234 140 268 274 15 60 15
88 1 193 -1 13 35 39 143 102 80 46 148 84 152 84 4 1 31 -17 60 -39z m-611
-57 c118 -64 152 -207 76 -320 -82 -122 -261 -131 -355 -18 -70 85 -69 197 3
291 58 76 184 98 276 47z m1907 -5 c109 -73 133 -232 50 -332 -115 -139 -342
-88 -389 88 -27 100 21 203 121 257 54 29 163 23 218 -13z m-33 -1077 c148
-67 181 -250 66 -362 -136 -131 -347 -59 -377 130 -14 87 46 194 130 232 52
24 130 24 181 0z m-1511 -563 l109 -63 1 -115 c1 -138 17 -180 97 -265 50 -53
135 -105 171 -105 17 0 18 -13 18 -183 l0 -182 -48 -17 c-27 -10 -68 -32 -92
-50 -23 -18 -48 -37 -54 -41 -7 -6 -69 25 -161 78 -83 48 -151 88 -152 89 0 0
4 25 10 55 14 71 -4 176 -40 243 -38 70 -121 143 -193 169 l-60 22 0 177 0
177 59 22 c32 12 78 39 102 60 l44 39 40 -23 c22 -13 89 -52 149 -87z m1287
11 l59 -22 0 -177 0 -177 -60 -22 c-158 -58 -261 -237 -233 -403 6 -35 10 -64
9 -64 0 -1 -68 -41 -151 -89 -92 -53 -154 -84 -161 -78 -6 4 -31 23 -54 41
-24 18 -65 40 -92 50 l-48 17 0 182 c0 170 1 183 18 183 36 0 121 52 171 105
80 85 96 127 97 265 l1 115 149 86 149 87 44 -39 c24 -21 70 -49 102 -60z
m-713 2 c80 -41 122 -111 122 -201 0 -130 -90 -220 -220 -220 -130 0 -220 90
-220 220 0 90 43 160 125 203 43 23 146 22 193 -2z m-942 -549 c130 -67 161
-231 66 -343 -44 -52 -102 -79 -167 -79 -206 0 -304 259 -147 391 22 18 55 39
73 46 45 17 127 10 175 -15z m1858 16 c55 -17 131 -91 145 -143 16 -58 13
-114 -8 -160 -70 -152 -265 -182 -373 -56 -146 171 20 423 236 359z m-931
-551 c87 -37 136 -113 137 -210 0 -102 -62 -185 -159 -214 -143 -41 -281 64
-281 214 1 96 49 172 135 209 39 17 127 18 168 1z m18 -1105 c34 -17 65 -44
84 -71 28 -39 30 -50 30 -126 0 -76 -2 -87 -30 -126 -40 -56 -120 -99 -185
-99 -65 0 -145 43 -185 99 -28 39 -30 50 -30 126 0 76 2 87 30 126 19 27 50
54 84 71 71 37 131 37 202 0z"/>
</g>
</svg>
