<?xml version="1.0" standalone="no"?>
<!DOCTYPE svg PUBLIC "-//W3C//DTD SVG 20010904//EN"
 "http://www.w3.org/TR/2001/REC-SVG-20010904/DTD/svg10.dtd">
<svg version="1.0" xmlns="http://www.w3.org/2000/svg"
 width="512.000000pt" height="512.000000pt" viewBox="0 0 512.000000 512.000000"
 preserveAspectRatio="xMidYMid meet">

<g transform="translate(0.000000,512.000000) scale(0.100000,-0.100000)"
fill="#000000" stroke="none">
<path d="M799 5097 c-66 -43 -69 -61 -69 -354 l0 -263 141 0 140 0 -3 273 c-3
269 -3 272 -27 306 -44 61 -123 78 -182 38z"/>
<path d="M4194 5106 c-17 -8 -42 -29 -55 -47 -24 -34 -24 -37 -27 -306 l-3
-273 140 0 141 0 0 263 c0 293 -3 311 -69 354 -38 26 -81 29 -127 9z"/>
<path d="M335 4291 c-47 -20 -60 -49 -60 -132 0 -73 2 -81 28 -106 l27 -28
541 0 541 0 24 28 c21 25 24 38 24 107 0 69 -3 82 -24 107 l-24 28 -529 2
c-290 1 -537 -2 -548 -6z"/>
<path d="M3714 4290 c-41 -16 -54 -49 -54 -132 0 -67 3 -81 24 -105 l24 -28
541 0 541 0 27 28 c26 25 28 33 28 107 0 74 -2 82 -28 107 l-27 28 -528 2
c-290 1 -537 -2 -548 -7z"/>
<path d="M460 2560 l0 -1280 2100 0 2100 0 0 1280 0 1280 -2100 0 -2100 0 0
-1280z m1675 1075 c144 -36 307 -148 386 -264 19 -28 36 -51 39 -51 3 0 13 13
23 29 27 47 107 131 165 173 66 49 157 92 242 115 85 22 243 22 330 0 193 -50
360 -185 443 -358 78 -160 77 -151 77 -959 0 -574 -3 -717 -14 -743 -17 -43
-76 -93 -123 -106 -60 -17 -1058 -14 -1105 3 -32 11 -44 11 -75 0 -48 -17
-1046 -20 -1106 -3 -47 13 -106 63 -123 106 -11 26 -14 169 -14 743 0 806 0
802 75 955 140 289 467 439 780 360z"/>
<path d="M1810 3447 c-178 -61 -311 -215 -340 -397 -6 -40 -10 -324 -10 -732
l0 -668 505 0 506 0 -3 713 c-3 710 -3 712 -26 771 -60 160 -180 272 -341 320
-81 24 -211 21 -291 -7z m423 -348 c54 -25 66 -101 22 -144 l-24 -25 -266 0
-266 0 -24 25 c-38 37 -35 95 6 129 l31 26 248 0 c161 0 258 -4 273 -11z m14
-374 c50 -35 46 -123 -7 -150 -24 -12 -75 -15 -275 -15 -250 0 -275 3 -302 39
-22 28 -16 89 12 116 l24 25 263 0 c217 0 267 -3 285 -15z m9 -376 c36 -36 36
-92 0 -128 l-26 -26 -232 -3 c-128 -2 -248 -1 -266 3 -98 18 -113 144 -22 178
8 3 129 5 267 4 l253 -2 26 -26z m-14 -350 c11 -6 26 -26 34 -45 12 -29 12
-39 0 -68 -8 -19 -23 -39 -34 -45 -13 -7 -113 -11 -280 -11 l-259 0 -27 25
c-20 18 -26 34 -26 65 0 31 6 47 26 65 l27 25 259 0 c167 0 267 -4 280 -11z"/>
<path d="M3010 3451 c-83 -27 -131 -55 -193 -111 -64 -59 -108 -123 -139 -206
-23 -59 -23 -61 -26 -771 l-3 -713 506 0 505 0 0 668 c0 408 -4 692 -10 732
-30 189 -172 348 -359 404 -73 22 -210 20 -281 -3z m429 -367 c41 -34 44 -92
6 -129 l-24 -25 -266 0 -266 0 -24 25 c-42 42 -32 119 19 143 12 7 121 11 273
11 l251 1 31 -26z m6 -369 c28 -27 34 -88 12 -116 -27 -36 -52 -39 -302 -39
-273 0 -294 4 -314 61 -12 36 5 90 36 108 11 7 113 11 281 11 l263 0 24 -25z
m-1 -364 c55 -51 22 -141 -56 -156 -18 -4 -138 -5 -266 -3 l-232 3 -26 26
c-46 46 -30 124 31 150 11 4 133 7 272 6 251 -2 251 -2 277 -26z m0 -366 c20
-18 26 -34 26 -65 0 -31 -6 -47 -26 -65 l-27 -25 -259 0 c-167 0 -267 4 -280
11 -11 6 -26 26 -34 45 -12 29 -12 39 0 68 8 19 22 39 33 45 11 7 112 11 279
11 l261 0 27 -25z"/>
<path d="M335 1091 c-47 -20 -60 -49 -60 -132 0 -73 2 -81 28 -106 l27 -28
541 0 541 0 24 28 c21 25 24 38 24 107 0 69 -3 82 -24 107 l-24 28 -529 2
c-290 1 -537 -2 -548 -6z"/>
<path d="M3714 1090 c-41 -16 -54 -49 -54 -132 0 -67 3 -81 24 -105 l24 -28
541 0 541 0 27 28 c26 25 28 33 28 107 0 74 -2 82 -28 107 l-27 28 -528 2
c-290 1 -537 -2 -548 -7z"/>
<path d="M730 378 c0 -294 3 -312 69 -355 59 -40 138 -23 182 38 24 34 24 37
27 307 l3 272 -140 0 -141 0 0 -262z"/>
<path d="M4112 368 c3 -270 3 -273 27 -307 44 -61 123 -78 182 -38 66 43 69
61 69 355 l0 262 -141 0 -140 0 3 -272z"/>
</g>
</svg>
