<?xml version="1.0" standalone="no"?>
<!DOCTYPE svg PUBLIC "-//W3C//DTD SVG 20010904//EN"
 "http://www.w3.org/TR/2001/REC-SVG-20010904/DTD/svg10.dtd">
<svg version="1.0" xmlns="http://www.w3.org/2000/svg"
 width="512.000000pt" height="512.000000pt" viewBox="0 0 512.000000 512.000000"
 preserveAspectRatio="xMidYMid meet">

<g transform="translate(0.000000,512.000000) scale(0.100000,-0.100000)"
fill="#000000" stroke="none">
<path d="M1191 5109 c-206 -40 -383 -174 -472 -354 -74 -151 -69 -38 -69
-1636 l0 -1438 26 -20 c35 -27 57 -26 91 3 l28 24 5 1449 5 1448 23 55 c67
157 219 289 365 315 l37 7 0 -1971 0 -1971 -53 0 c-119 0 -235 -37 -327 -105
l-49 -36 -3 261 c-3 261 -3 262 -27 281 -30 25 -76 24 -101 -1 -19 -19 -20
-33 -20 -503 0 -526 2 -547 58 -651 15 -28 55 -79 88 -113 69 -71 171 -126
264 -143 37 -7 591 -9 1635 -8 l1580 3 53 29 c30 17 67 47 83 67 63 80 59
-105 59 2459 0 2564 4 2379 -59 2459 -16 20 -53 50 -83 67 l-53 29 -1520 1
c-836 1 -1540 -2 -1564 -7z m3095 -181 l34 -38 0 -1935 0 -1935 -1470 0 -1470
0 0 1975 0 1975 1436 -2 1436 -3 34 -37z m34 -4203 l0 -145 -1339 0 -1340 0
-20 -26 c-12 -15 -21 -33 -21 -40 0 -29 25 -64 53 -74 20 -7 454 -10 1348 -10
l1319 0 0 -100 c0 -100 0 -100 -34 -138 l-34 -37 -1594 0 -1593 0 -55 26 c-78
37 -131 87 -171 161 -32 60 -34 68 -34 163 0 88 3 107 27 157 30 64 98 136
155 164 91 44 50 43 1731 43 l1602 1 0 -145z"/>
<path d="M2765 4431 c-22 -10 -52 -31 -67 -47 -15 -16 -96 -144 -181 -284
l-154 -255 -339 -5 -339 -5 -48 -28 c-68 -40 -100 -93 -105 -173 -5 -79 -3
-84 186 -403 l139 -235 -165 -273 c-179 -296 -187 -318 -161 -410 16 -59 78
-124 135 -141 29 -8 138 -12 366 -12 l325 0 154 -257 c167 -279 192 -314 250
-344 48 -24 137 -25 182 -3 60 30 89 69 249 337 l161 267 331 0 c328 0 331 0
383 24 82 39 132 131 118 222 -4 31 -52 119 -167 311 -88 147 -161 273 -161
278 0 6 64 118 143 250 167 280 190 326 190 381 0 59 -45 142 -98 179 l-44 30
-348 3 -349 3 -37 62 c-53 89 -62 97 -104 97 -44 0 -73 -27 -73 -68 0 -15 24
-67 54 -117 80 -132 54 -125 467 -125 329 0 343 -1 362 -20 11 -11 20 -30 20
-42 0 -12 -77 -151 -171 -310 -163 -274 -171 -291 -167 -331 4 -32 46 -110
172 -319 91 -152 166 -283 166 -291 0 -8 -9 -26 -21 -41 l-20 -26 -335 0
c-358 0 -377 -2 -420 -51 -11 -13 -90 -139 -174 -279 -84 -140 -159 -263 -168
-272 -9 -11 -29 -18 -48 -18 -42 0 -44 3 -224 305 -79 132 -152 251 -164 264
-43 49 -62 51 -421 51 -322 0 -336 1 -355 20 -11 11 -20 30 -20 43 0 12 77
150 171 307 158 265 170 288 166 325 -3 28 -40 100 -129 250 -171 287 -198
338 -198 366 1 66 16 69 387 69 300 0 331 2 363 18 29 16 64 67 200 289 91
149 171 278 179 287 7 9 28 16 47 16 30 0 38 -7 75 -62 50 -74 54 -78 96 -78
34 0 73 37 73 69 0 20 -62 125 -93 160 -54 58 -165 78 -242 42z"/>
<path d="M2786 3979 c-14 -11 -62 -84 -106 -162 -73 -127 -81 -146 -76 -182 3
-28 14 -48 36 -67 l30 -28 184 0 c169 0 185 2 209 20 30 24 51 80 42 112 -13
41 -148 272 -176 301 -35 35 -102 38 -143 6z m107 -287 c-18 -2 -50 -2 -72 0
l-39 3 36 62 36 63 36 -63 36 -62 -33 -3z"/>
<path d="M2033 3545 c-41 -18 -68 -59 -67 -104 2 -51 155 -316 195 -336 39
-21 92 -19 122 5 35 27 178 277 184 321 7 47 -19 93 -63 114 -43 20 -324 21
-371 0z m257 -142 c-1 -14 -65 -116 -73 -117 -4 0 -24 27 -43 62 l-35 62 75 0
c42 0 76 -3 76 -7z"/>
<path d="M3302 3543 c-38 -19 -62 -58 -62 -104 0 -38 136 -280 181 -321 33
-32 83 -37 127 -14 42 22 192 288 192 341 0 49 -22 83 -66 101 -51 21 -328 19
-372 -3z m258 -142 c0 -12 -63 -121 -70 -121 -5 0 -70 114 -70 124 0 3 32 6
70 6 39 0 70 -4 70 -9z"/>
<path d="M2644 3366 c-24 -11 -51 -48 -127 -177 -67 -113 -97 -174 -97 -195 0
-22 30 -81 96 -192 78 -130 103 -164 131 -177 28 -14 65 -16 223 -13 185 3
189 3 215 28 45 42 205 319 205 354 0 21 -31 83 -94 191 -74 127 -100 164
-127 177 -29 15 -62 18 -214 18 -128 -1 -189 -5 -211 -14z m419 -250 c37 -63
67 -118 67 -122 0 -4 -30 -59 -67 -121 l-68 -113 -140 0 -140 0 -68 113 c-37
62 -67 116 -67 120 0 4 30 59 68 122 l67 115 140 0 141 0 67 -114z"/>
<path d="M2160 2886 c-26 -15 -181 -270 -193 -318 -10 -39 15 -94 55 -118 29
-18 50 -20 191 -20 127 0 166 3 193 16 39 19 64 59 64 101 0 31 -146 297 -180
328 -25 23 -98 29 -130 11z m100 -242 c17 -31 29 -58 27 -60 -3 -3 -36 -4 -75
-2 l-70 3 35 63 c19 34 39 60 43 57 4 -3 22 -30 40 -61z"/>
<path d="M3427 2880 c-39 -31 -187 -292 -187 -330 0 -46 27 -90 65 -106 50
-20 335 -20 375 1 41 21 60 53 60 99 0 32 -16 69 -76 173 -42 73 -89 144 -106
158 -37 31 -94 34 -131 5z m105 -232 l36 -63 -70 -3 c-39 -2 -72 -1 -75 2 -5
5 59 126 67 126 3 0 22 -28 42 -62z"/>
<path d="M2648 2430 c-34 -26 -52 -72 -43 -112 9 -47 155 -287 188 -312 35
-26 89 -26 124 1 29 21 164 243 184 301 14 41 -3 94 -38 122 -24 18 -40 20
-208 20 -166 0 -185 -2 -207 -20z m264 -162 c-10 -18 -27 -47 -37 -65 -21 -36
-19 -38 -69 50 l-28 47 77 0 77 0 -20 -32z"/>
</g>
</svg>
