<?xml version="1.0" standalone="no"?>
<!DOCTYPE svg PUBLIC "-//W3C//DTD SVG 20010904//EN"
 "http://www.w3.org/TR/2001/REC-SVG-20010904/DTD/svg10.dtd">
<svg version="1.0" xmlns="http://www.w3.org/2000/svg"
 width="512.000000pt" height="512.000000pt" viewBox="0 0 512.000000 512.000000"
 preserveAspectRatio="xMidYMid meet">

<g transform="translate(0.000000,512.000000) scale(0.100000,-0.100000)"
fill="#000000" stroke="none">
<path d="M585 5096 c-59 -28 -97 -66 -122 -121 -15 -34 -18 -76 -21 -272 l-4
-233 -161 0 c-186 0 -216 -9 -254 -76 -20 -34 -23 -54 -23 -152 0 -130 11
-166 64 -208 l36 -29 0 -1041 c0 -1038 0 -1041 21 -1068 26 -33 79 -36 109 -6
20 20 20 33 20 1065 l0 1045 430 0 430 0 0 -1440 0 -1440 -430 0 -430 0 0 250
c0 237 -1 251 -20 270 -30 30 -83 27 -109 -6 -20 -25 -21 -39 -21 -273 l0
-246 -36 -29 c-53 -42 -64 -78 -64 -207 0 -101 2 -116 25 -154 39 -67 66 -75
253 -75 l160 0 4 -233 c3 -196 6 -238 21 -272 25 -55 63 -93 122 -121 115 -55
244 -8 308 111 21 37 22 56 25 278 l3 237 168 0 c158 0 170 1 201 22 56 39 70
78 70 195 l0 103 1200 0 1200 0 0 -102 c0 -119 14 -159 69 -195 32 -22 44 -23
202 -23 l168 0 3 -238 c3 -222 4 -240 25 -278 44 -82 130 -134 219 -134 48 0
130 38 166 76 56 60 62 89 66 342 l4 232 160 0 c187 0 214 8 253 75 23 38 25
53 25 154 0 129 -11 165 -64 207 l-36 29 0 1156 c0 1155 0 1156 -21 1183 -27
34 -77 36 -107 3 l-22 -23 0 -1157 0 -1157 -430 0 -430 0 0 1440 0 1440 430 0
430 0 0 -131 c0 -73 5 -139 11 -150 25 -48 105 -44 128 7 6 14 11 79 11 152
l0 127 36 29 c53 42 64 78 64 207 0 101 -2 116 -25 154 -39 67 -66 75 -253 75
l-160 0 -4 233 c-4 252 -10 281 -66 341 -36 38 -118 76 -166 76 -89 0 -175
-52 -219 -134 -21 -38 -22 -56 -25 -278 l-3 -238 -168 0 c-158 0 -170 -1 -202
-23 -55 -36 -69 -76 -69 -194 l0 -103 -205 0 c-205 0 -206 0 -230 -25 -14 -13
-25 -36 -25 -50 0 -14 11 -37 25 -50 l24 -25 256 0 255 0 0 -1440 0 -1440
-1300 0 -1300 0 0 1440 0 1440 895 0 896 0 24 25 c32 31 32 69 0 100 l-24 25
-846 0 -845 0 0 103 c0 117 -14 156 -70 195 -31 21 -43 22 -201 22 l-168 0 -3
238 c-3 221 -4 240 -25 277 -64 119 -193 166 -308 111z m152 -150 l28 -24 3
-227 3 -226 -88 3 -88 3 -3 190 c-2 105 0 205 3 224 14 74 87 104 142 57z
m3758 0 c33 -33 36 -63 33 -281 l-3 -190 -88 -3 -88 -3 3 226 3 227 28 24 c36
31 81 31 112 0z m-3285 -711 l0 -85 -530 0 -530 0 0 85 0 85 530 0 530 0 0
-85z m3760 0 l0 -85 -530 0 -530 0 0 85 0 85 530 0 530 0 0 -85z m-3760 -3350
l0 -85 -530 0 -530 0 0 85 0 85 530 0 530 0 0 -85z m3760 0 l0 -85 -530 0
-530 0 0 85 0 85 530 0 530 0 0 -85z m-4202 -461 l-3 -226 -28 -24 c-49 -42
-108 -28 -133 31 -10 26 -14 84 -14 233 0 109 3 202 7 205 3 4 44 7 90 7 l84
0 -3 -226z m3760 31 c2 -104 0 -205 -3 -224 -14 -74 -87 -104 -142 -57 l-28
24 -3 227 -3 226 88 -3 88 -3 3 -190z"/>
<path d="M1690 3803 c-51 -19 -68 -85 -30 -123 17 -17 33 -20 99 -20 74 0 81
2 100 26 28 36 26 60 -8 95 -26 26 -36 29 -88 28 -32 0 -65 -3 -73 -6z"/>
<path d="M2095 3799 c-49 -28 -58 -70 -24 -113 l20 -26 170 0 c156 0 171 2
189 20 27 27 26 81 -1 106 -19 17 -40 19 -178 22 -102 1 -163 -2 -176 -9z"/>
<path d="M2903 3800 c-46 -19 -57 -83 -20 -118 20 -19 35 -22 99 -22 71 0 78
2 97 26 34 43 26 86 -20 109 -31 16 -121 19 -156 5z"/>
<path d="M3298 3780 c-24 -25 -29 -36 -23 -58 15 -60 22 -62 205 -62 145 0
171 2 189 18 33 26 31 79 -3 109 -26 22 -34 23 -182 23 l-156 0 -30 -30z"/>
<path d="M1449 3462 c-30 -25 -30 -75 0 -105 l22 -22 478 0 c457 0 480 1 500
19 27 25 28 79 1 106 -19 19 -33 20 -499 20 -450 0 -480 -1 -502 -18z"/>
<path d="M2670 3460 c-27 -27 -26 -81 1 -106 20 -18 43 -19 500 -19 478 0 478
0 500 22 29 29 28 81 -2 105 -20 17 -58 18 -500 18 -466 0 -480 -1 -499 -20z"/>
<path d="M1457 3148 c-38 -30 -38 -95 1 -124 13 -11 116 -13 488 -14 462 0
472 0 498 21 34 27 36 77 3 107 -23 22 -24 22 -498 22 -365 0 -479 -3 -492
-12z"/>
<path d="M2672 3137 c-31 -33 -29 -80 4 -106 26 -21 36 -21 498 -21 504 1 495
0 515 51 11 30 -8 83 -34 93 -9 3 -229 6 -489 6 l-473 0 -21 -23z"/>
<path d="M1454 2817 c-20 -18 -27 -32 -26 -58 1 -53 29 -69 122 -69 93 0 121
16 122 69 2 56 -36 81 -122 81 -58 0 -73 -4 -96 -23z"/>
<path d="M1893 2830 c-46 -19 -57 -83 -20 -118 22 -21 33 -22 183 -22 155 0
161 1 182 23 27 29 28 67 3 98 -18 23 -25 24 -173 26 -84 1 -163 -2 -175 -7z"/>
<path d="M2700 2833 c-51 -19 -68 -85 -30 -123 17 -17 33 -20 104 -20 79 0 86
2 105 26 12 15 21 33 21 40 0 26 -23 62 -47 73 -24 11 -126 14 -153 4z"/>
<path d="M3115 2829 c-49 -28 -58 -70 -24 -113 l20 -26 165 0 c151 0 166 2
184 20 27 27 26 81 -1 106 -18 17 -40 19 -173 22 -98 1 -158 -2 -171 -9z"/>
<path d="M1660 2410 c-27 -27 -26 -81 1 -106 15 -13 40 -20 89 -22 66 -4 71
-3 100 26 35 36 38 60 9 96 -19 24 -26 26 -100 26 -66 0 -82 -3 -99 -20z"/>
<path d="M2071 2404 c-26 -34 -27 -68 -1 -94 29 -29 52 -32 213 -28 126 3 148
6 166 22 27 25 28 79 1 106 -18 18 -33 20 -189 20 l-170 0 -20 -26z"/>
<path d="M2882 2407 c-27 -28 -28 -67 -4 -97 14 -18 32 -24 75 -28 68 -5 101
2 127 28 26 26 25 60 -1 94 -19 24 -26 26 -98 26 -68 0 -80 -3 -99 -23z"/>
<path d="M3297 2413 c-8 -10 -19 -30 -22 -45 -6 -22 -1 -33 23 -58 l30 -30
156 0 c148 0 156 1 182 23 34 30 36 83 3 109 -18 16 -44 18 -189 18 -146 0
-169 -2 -183 -17z"/>
<path d="M1458 2096 c-41 -31 -37 -113 7 -130 9 -3 229 -6 489 -6 l473 0 21
23 c31 33 29 80 -4 106 -26 21 -36 21 -498 21 -371 -1 -475 -3 -488 -14z"/>
<path d="M2676 2089 c-34 -27 -36 -77 -3 -107 23 -22 24 -22 494 -22 259 0
479 3 488 6 26 10 45 63 34 93 -20 51 -11 50 -515 51 -462 0 -472 0 -498 -21z"/>
<path d="M1475 1781 c-52 -22 -66 -90 -26 -123 22 -17 52 -18 502 -18 466 0
480 1 499 20 27 27 26 81 -1 106 -20 18 -44 19 -488 21 -256 1 -475 -2 -486
-6z"/>
<path d="M2700 1783 c-52 -19 -68 -85 -30 -123 19 -19 33 -20 499 -20 442 0
480 1 500 18 30 24 31 76 2 105 -21 22 -23 22 -489 24 -257 1 -474 -1 -482 -4z"/>
<path d="M1449 1442 c-33 -27 -30 -78 5 -109 38 -32 150 -34 190 -2 35 27 37
90 4 113 -34 24 -168 22 -199 -2z"/>
<path d="M1872 1437 c-27 -29 -28 -67 -3 -98 19 -23 23 -24 186 -24 163 0 167
1 186 24 26 32 24 73 -4 99 -22 21 -33 22 -183 22 -155 0 -161 -1 -182 -23z"/>
<path d="M2670 1440 c-27 -27 -26 -81 1 -106 15 -14 40 -20 95 -22 71 -4 75
-3 104 26 35 36 38 60 9 96 -19 24 -26 26 -105 26 -71 0 -87 -3 -104 -20z"/>
<path d="M3091 1434 c-26 -34 -27 -68 -1 -94 29 -29 53 -32 208 -28 121 3 143
6 161 22 27 25 28 79 1 106 -18 18 -33 20 -184 20 l-165 0 -20 -26z"/>
</g>
</svg>
